
        <svg xmlns="http://www.w3.org/2000/svg" xmlns:xlink="http://www.w3.org/1999/xlink" version="1.1" width="3148.8372093023254" height="3148.8372093023254" viewBox="0 0 3148.8372093023254 3148.8372093023254">
			
			<g transform="scale(7.441860465116279) translate(10, 10)">
				<defs id="SvgjsDefs2002"/><g id="SvgjsG2003" featureKey="rootContainer" transform="matrix(8.0625,0,0,8.0625,0,0)" fill="#000"><path xmlns="http://www.w3.org/2000/svg" d="M50 25c0 8.88-3.62 15.67-10.6 20.11C35.53 47.58 29.93 50 25 50c-8.63 0-14.24-1.37-18.73-8C3.57 38 0 30.2 0 25c0-6.85 1.76-14.06 6.22-18.58S18.04 0 25 0c9.5 0 16.77 5.3 21 13.11 1.88 3.53 4 7.58 4 11.89z"/></g><g id="SvgjsG2004" featureKey="symbolFeature-0" transform="matrix(-1.4327735179423358,0,0,1.4327735179423358,249.69750514830946,68.53175266216799)" fill="#ffffff"><g xmlns="http://www.w3.org/2000/svg"><path d="M64,19.223c-1.761,4.9621-4.5939,9.7478-8.2146,13.7831c5.8856-9.1406,7.2862-20.0986,4.6306-29.8874   c0.8543,10.5944-2.135,20.6234-8.2026,28.7088c0.6482-2.9309,0.552-6.2786-0.4691-9.5376   c0.5193,4.939-0.7774,10.0521-3.9329,14.5409c-3.5361,3.4277-7.6733,6.23-12.2317,8.2386c-0.06-0.1804-0.1201-0.3368-0.1683-0.4811   c-0.2886-0.8057-0.9261-1.4673-1.7559-1.6837c-1.299-0.3368-2.574,0.3728-3.0068,1.5755c-0.0241,0.06-0.1084,0.2646-0.2167,0.5893   c-4.5702-2.0086-8.7076-4.8229-12.2556-8.2626c-2.9685-4.2428-4.3952-9.114-3.9209-14.5168   c-1.0083,3.2181-1.1035,6.6155-0.4569,9.5376C7.7281,23.7382,4.7273,13.7105,5.5841,3.1186   c-2.6827,10.0322-1.1424,20.922,4.6304,29.8874C6.8097,29.2112,3.9724,24.619,2,19.223   c1.3738,8.0299,5.3007,15.1777,10.692,20.4461C8.378,36.5806,4.6674,32.5966,2,28.4478   c2.8468,6.7607,7.5805,12.3443,13.1336,16.2005c-4.6229-1.8961-8.959-4.6225-12.8569-8.2508   c3.1101,4.1859,7.0476,7.6149,11.486,10.151c-4.0025-1.019-7.7488-2.6106-10.8967-4.462c6.334,5.429,14.8356,8.8448,23.8499,8.9483   c0.4569,0.0721,0.902,0.1321,1.3589,0.1683c-0.9862,2.5979-1.8882,4.9552-1.8882,4.9552l6.8556,6.7231l6.7832-6.7231   c0,0-1.1907-3.0909-1.8763-4.9552c0.4572-0.0482,0.902-0.0962,1.3472-0.1683c9.0821-0.1045,17.5108-3.5413,23.8498-8.9483   c-3.4498,2.0057-7.0874,3.4922-10.8965,4.462c4.5814-2.6379,8.4548-6.0967,11.4858-10.151   c-3.7747,3.4655-7.9088,6.2212-12.8571,8.2508C56.5964,40.6616,61.2066,35.0818,64,28.4478   c-2.6465,4.1164-6.3161,8.0885-10.6923,11.2213c3.1753-3.0909,5.8333-6.8074,7.7936-11.0771   C62.5086,25.5492,63.4587,22.3861,64,19.223z"/></g></g><g id="SvgjsG2005" featureKey="nameFeature-0" transform="matrix(5.1511173391250695,0,0,5.1511173391250695,127,123.57396642704045)" fill="#ffffff"><path d="M5.48 40.24 c-3.04 0 -5.48 -2.48 -5.48 -5.48 l0 -4.36 l3.88 0 l0 4.36 c0 0.88 0.72 1.6 1.6 1.6 s1.56 -0.72 1.56 -1.6 l0 -3.8 l-7.04 -9.72 l0 -4.96 c0 -3.04 2.44 -5.52 5.48 -5.52 c3 0 5.44 2.48 5.44 5.52 l0 4.32 l-3.88 0 l0 -4.32 c0 -0.92 -0.68 -1.6 -1.56 -1.6 s-1.6 0.68 -1.6 1.6 l0 3.64 l7.04 9.72 l0 5.12 c0 3 -2.44 5.48 -5.44 5.48 z M25.283 39.84 l-4.2 -15.76 l-0.6 1 l0 14.88 l-3.72 0 l0 -28.52 l3.72 0 l0 6.2 l2.48 -6.2 l4.6 0 l-3.8 8.24 l5.4 20.16 l-3.88 0 z"/></g>
			</g>
		</svg>
	